<?xml version="1.0" encoding="utf-8"?>
<!-- Generator: Adobe Illustrator 25.4.1, SVG Export Plug-In . SVG Version: 6.00 Build 0)  -->
<svg version="1.1" id="Capa_1" xmlns="http://www.w3.org/2000/svg" xmlns:xlink="http://www.w3.org/1999/xlink" x="0px" y="0px"
	 viewBox="0 0 112 82.5" style="enable-background:new 0 0 112 82.5;" xml:space="preserve">
<style type="text/css">
	.st0{fill:#EA9621;}
	.st1{fill:#2F398C;}
	.st2{fill:#1784C6;}
</style>
<path class="st0" d="M48.2,32.2c-0.5,0.4-0.7,1.1-0.3,1.6l1.2,1.7c0.4,0.5,0.7,0.9,0.7,0.9s0.3,0.4,0.7,0.9l1.2,1.7
	c0.4,0.5,1.1,0.6,1.6,0.3L68.5,29c0.5-0.4,1.3-0.2,1.6,0.3l3.8,5.4c0.4,0.5,0.2,1.2-0.3,1.6L58.4,46.6c-0.5,0.4-0.6,1.1-0.3,1.6
	l3.7,5.3c0.4,0.5,1.1,0.7,1.6,0.3l23.8-16.3c0.5-0.4,0.7-1.1,0.3-1.6L73.6,16.2c-0.4-0.5-1.1-0.6-1.6-0.3L48.2,32.2z"/>
<path class="st1" d="M59.7,55.5c0.4,0.5,0.2,1.2-0.3,1.6l-8.1,5.6c-0.5,0.4-1.3,0.2-1.6-0.3L24.3,26.3c-0.4-0.5-0.2-1.2,0.3-1.6
	l8.1-5.6c0.5-0.4,1.2-0.2,1.6,0.3L59.7,55.5z"/>
<path class="st2" d="M43.9,26.2c-0.5,0.4-1.2,0.2-1.6-0.3l-5.6-8c-0.4-0.5-0.2-1.2,0.3-1.6L60.4,0.2C60.9-0.2,61.7,0,62,0.5l5.6,8
	c0.4,0.5,0.2,1.2-0.3,1.6L43.9,26.2z"/>
<path class="st1" d="M13.6,70.8l-1.4,1.3c-1.4-1.3-3-2-4.8-2c-1.6,0-2.9,0.5-4,1.5s-1.6,2.3-1.6,3.8c0,1.3,0.5,2.5,1.5,3.6
	s2.4,1.6,4.2,1.6c2.7,0,4.4-1.2,5.1-3.5H9.1v-1.8h5.8c0,0.9-0.1,1.6-0.2,2.2c-0.1,0.5-0.4,1.1-0.8,1.8c-0.4,0.7-0.9,1.2-1.5,1.8
	c-0.6,0.5-1.3,0.9-2.1,1.1c-0.7,0.2-1.6,0.3-2.6,0.3c-2.3,0-4.2-0.7-5.6-2.2S0,77.2,0,75.3c0-2,0.7-3.6,2.1-5s3.1-2.1,5.2-2.1
	c1.2,0,2.3,0.2,3.3,0.5C11.5,69.1,12.5,69.8,13.6,70.8"/>
<path class="st1" d="M18.8,70.3v4.6c2.7,0.1,4.1-0.7,4.1-2.3c0-0.6-0.2-1-0.5-1.4s-0.7-0.6-1.3-0.7C20.6,70.3,19.9,70.3,18.8,70.3
	 M17,68.6h2.9c1.5,0,2.6,0.4,3.6,1.1c0.9,0.7,1.4,1.6,1.4,2.8c0,0.9-0.3,1.7-0.9,2.4c-0.6,0.7-1.5,1.2-2.8,1.4l3.9,5.7H23l-3.7-5.5
	h-0.4V82h-1.8V68.6H17z"/>
<path class="st1" d="M27,68.7h1.8v8.2c0,1.2,0.3,2.2,0.9,2.8c0.6,0.7,1.4,1,2.5,1c1.1,0,1.9-0.3,2.5-0.9s0.9-1.5,0.9-2.6v-8.5h1.9
	v8.4c0,1.6-0.5,2.9-1.4,3.9s-2.2,1.5-3.8,1.5c-1.6,0-2.9-0.5-3.9-1.5S27,78.5,27,76.6C27,76.6,27,68.7,27,68.7z"/>
<path class="st1" d="M41.9,70.2v4.7c1.4,0,2.4-0.2,3.1-0.6c0.7-0.4,1-1,1-1.8c0-0.6-0.3-1.2-0.8-1.6C44.7,70.5,43.6,70.2,41.9,70.2
	 M40,68.6h2.7c1.5,0,2.8,0.4,3.7,1.1s1.4,1.6,1.4,2.8c0,1.1-0.5,2.1-1.5,2.9s-2.5,1.2-4.5,1.1V82H40C40,82,40,68.6,40,68.6z"/>
<path class="st1" d="M62.3,75.3c0-1.5-0.5-2.7-1.6-3.7s-2.4-1.5-4-1.5c-1.5,0-2.8,0.5-3.8,1.5c-1.1,1-1.6,2.3-1.6,3.7
	c0,1.5,0.5,2.7,1.6,3.7s2.4,1.5,4,1.5c1.5,0,2.7-0.5,3.8-1.5S62.3,76.7,62.3,75.3 M49.4,75.2c0-1.9,0.7-3.6,2.2-5s3.2-2.1,5.3-2.1
	c2,0,3.8,0.7,5.2,2.1c1.5,1.4,2.2,3,2.2,4.9c0,2-0.7,3.7-2.2,5.1c-1.4,1.4-3.2,2.1-5.3,2.1s-3.8-0.7-5.3-2.1
	C50.1,78.9,49.4,77.2,49.4,75.2"/>
<path class="st1" d="M73.8,70.2v4.7c1.4,0,2.4-0.2,3.1-0.6s1-1,1-1.8c0-0.6-0.3-1.2-0.8-1.6C76.7,70.5,75.6,70.2,73.8,70.2 M72,68.6
	h2.7c1.5,0,2.8,0.4,3.7,1.1c0.9,0.7,1.4,1.6,1.4,2.8c0,1.1-0.5,2.1-1.5,2.9s-2.5,1.2-4.5,1.1V82H72C72,82,72,68.6,72,68.6z"/>
<path class="st1" d="M93,70.3v4.6c2.7,0.1,4.1-0.7,4.1-2.3c0-0.6-0.2-1-0.5-1.4s-0.7-0.6-1.3-0.7C94.8,70.3,94,70.3,93,70.3
	 M91.2,68.6h2.9c1.5,0,2.6,0.4,3.6,1.1c0.9,0.7,1.4,1.6,1.4,2.8c0,0.9-0.3,1.7-0.9,2.4c-0.6,0.7-1.5,1.2-2.8,1.4l3.9,5.7h-2.1
	l-3.7-5.5h-0.4V82h-1.9V68.6z"/>
<polygon class="st1" points="100.4,68.6 108.6,68.6 108.6,70.5 105.4,70.5 105.4,82 103.6,82 103.6,70.5 100.4,70.5 "/>
<rect x="81.8" y="73.8" class="st0" width="7.5" height="1.7"/>
<polygon class="st0" points="83.6,70.5 83.6,70.5 89.3,70.5 89.3,68.6 81.8,68.6 81.8,70.5 "/>
<rect x="81.8" y="80.2" class="st0" width="7.5" height="1.8"/>
<rect x="110.2" y="68.6" class="st1" width="1.8" height="13.4"/>
</svg>
