<?xml version="1.0" encoding="utf-8"?>
<!-- Generator: Adobe Illustrator 25.4.1, SVG Export Plug-In . SVG Version: 6.00 Build 0)  -->
<svg version="1.1" id="Capa_1" xmlns="http://www.w3.org/2000/svg" xmlns:xlink="http://www.w3.org/1999/xlink" x="0px" y="0px"
	 viewBox="0 0 287.4 82.4" style="enable-background:new 0 0 287.4 82.4;" xml:space="preserve">
<style type="text/css">
	.st0{fill:#FFFFFF;}
</style>
<path class="st0" d="M48.3,32.2c-0.5,0.4-0.7,1.1-0.3,1.6l1.2,1.7c0.4,0.5,0.7,0.9,0.7,0.9s0.3,0.4,0.7,0.9l1.2,1.7
	c0.4,0.5,1.1,0.6,1.6,0.3L68.6,29c0.5-0.4,1.3-0.2,1.6,0.3l3.8,5.4c0.4,0.5,0.2,1.2-0.3,1.6L58.5,46.6c-0.5,0.4-0.6,1.1-0.3,1.6
	l3.7,5.3c0.4,0.5,1.1,0.7,1.6,0.3l23.8-16.3c0.5-0.4,0.7-1.1,0.3-1.6L73.7,16.2c-0.4-0.5-1.1-0.6-1.6-0.3L48.3,32.2z"/>
<path class="st0" d="M59.8,55.5c0.4,0.5,0.2,1.2-0.3,1.6l-8.1,5.6c-0.5,0.4-1.3,0.2-1.6-0.3L24.4,26.3c-0.4-0.5-0.2-1.2,0.3-1.6
	l8.1-5.6c0.5-0.4,1.2-0.2,1.6,0.3L59.8,55.5z"/>
<path class="st0" d="M44,26.2c-0.5,0.4-1.2,0.2-1.6-0.3l-5.6-8c-0.4-0.5-0.2-1.2,0.3-1.6L60.5,0.2C61-0.2,61.8,0,62.1,0.5l5.6,8
	c0.4,0.5,0.2,1.2-0.3,1.6L44,26.2z"/>
<path class="st0" d="M13.7,70.8l-1.4,1.3c-1.4-1.3-3-2-4.8-2c-1.6,0-2.9,0.5-4,1.5s-1.6,2.3-1.6,3.8c0,1.3,0.5,2.5,1.5,3.6
	s2.4,1.6,4.2,1.6c2.7,0,4.4-1.2,5.1-3.5H9.2v-1.8H15c0,0.9-0.1,1.6-0.2,2.2c-0.1,0.5-0.4,1.1-0.8,1.8c-0.4,0.7-0.9,1.2-1.5,1.8
	c-0.6,0.5-1.3,0.9-2.1,1.1c-0.7,0.2-1.6,0.3-2.6,0.3c-2.3,0-4.2-0.7-5.6-2.2s-2.1-3.1-2.1-5c0-2,0.7-3.6,2.1-5s3.1-2.1,5.2-2.1
	c1.2,0,2.3,0.2,3.3,0.5C11.6,69.1,12.6,69.8,13.7,70.8"/>
<path class="st0" d="M18.9,70.3v4.6c2.7,0.1,4.1-0.7,4.1-2.3c0-0.6-0.2-1-0.5-1.4s-0.7-0.6-1.3-0.7C20.7,70.3,20,70.3,18.9,70.3
	 M17.1,68.6H20c1.5,0,2.6,0.4,3.6,1.1c0.9,0.7,1.4,1.6,1.4,2.8c0,0.9-0.3,1.7-0.9,2.4c-0.6,0.7-1.5,1.2-2.8,1.4l3.9,5.7h-2.1
	l-3.7-5.5H19V82h-1.8V68.6H17.1z"/>
<path class="st0" d="M27.1,68.7h1.8v8.2c0,1.2,0.3,2.2,0.9,2.8c0.6,0.7,1.4,1,2.5,1c1.1,0,1.9-0.3,2.5-0.9s0.9-1.5,0.9-2.6v-8.5h1.9
	v8.4c0,1.6-0.5,2.9-1.4,3.9s-2.2,1.5-3.8,1.5c-1.6,0-2.9-0.5-3.9-1.5s-1.4-2.5-1.4-4.4C27.1,76.6,27.1,68.7,27.1,68.7z"/>
<path class="st0" d="M42,70.2v4.7c1.4,0,2.4-0.2,3.1-0.6c0.7-0.4,1-1,1-1.8c0-0.6-0.3-1.2-0.8-1.6C44.8,70.5,43.7,70.2,42,70.2
	 M40.1,68.6h2.7c1.5,0,2.8,0.4,3.7,1.1s1.4,1.6,1.4,2.8c0,1.1-0.5,2.1-1.5,2.9s-2.5,1.2-4.5,1.1V82h-1.8
	C40.1,82,40.1,68.6,40.1,68.6z"/>
<path class="st0" d="M62.4,75.3c0-1.5-0.5-2.7-1.6-3.7s-2.4-1.5-4-1.5c-1.5,0-2.8,0.5-3.8,1.5c-1.1,1-1.6,2.3-1.6,3.7
	c0,1.5,0.5,2.7,1.6,3.7s2.4,1.5,4,1.5c1.5,0,2.7-0.5,3.8-1.5S62.4,76.7,62.4,75.3 M49.5,75.2c0-1.9,0.7-3.6,2.2-5s3.2-2.1,5.3-2.1
	c2,0,3.8,0.7,5.2,2.1c1.5,1.4,2.2,3,2.2,4.9c0,2-0.7,3.7-2.2,5.1c-1.4,1.4-3.2,2.1-5.3,2.1s-3.8-0.7-5.3-2.1
	C50.2,78.9,49.5,77.2,49.5,75.2"/>
<path class="st0" d="M73.9,70.2v4.7c1.4,0,2.4-0.2,3.1-0.6s1-1,1-1.8c0-0.6-0.3-1.2-0.8-1.6C76.8,70.5,75.7,70.2,73.9,70.2
	 M72.1,68.6h2.7c1.5,0,2.8,0.4,3.7,1.1c0.9,0.7,1.4,1.6,1.4,2.8c0,1.1-0.5,2.1-1.5,2.9s-2.5,1.2-4.5,1.1V82h-1.8
	C72.1,82,72.1,68.6,72.1,68.6z"/>
<path class="st0" d="M93.1,70.3v4.6c2.7,0.1,4.1-0.7,4.1-2.3c0-0.6-0.2-1-0.5-1.4s-0.7-0.6-1.3-0.7C94.9,70.3,94.1,70.3,93.1,70.3
	 M91.3,68.6h2.9c1.5,0,2.6,0.4,3.6,1.1c0.9,0.7,1.4,1.6,1.4,2.8c0,0.9-0.3,1.7-0.9,2.4c-0.6,0.7-1.5,1.2-2.8,1.4l3.9,5.7h-2.1
	l-3.7-5.5h-0.4V82h-1.9V68.6z"/>
<polygon class="st0" points="100.5,68.6 108.7,68.6 108.7,70.5 105.5,70.5 105.5,82 103.7,82 103.7,70.5 100.5,70.5 "/>
<rect x="81.9" y="73.8" class="st0" width="7.5" height="1.7"/>
<polygon class="st0" points="83.7,70.5 83.7,70.5 89.4,70.5 89.4,68.6 81.9,68.6 81.9,70.5 "/>
<rect x="81.9" y="80.2" class="st0" width="7.5" height="1.8"/>
<rect x="110.3" y="68.6" class="st0" width="1.8" height="13.4"/>
<g>
	<path class="st0" d="M149.1,29.1v-1h5.7v1h-2.3v9.5h-1.1v-9.5C151.4,29.1,149.1,29.1,149.1,29.1z"/>
	<path class="st0" d="M162.1,36l0.8,0.4c-0.3,0.5-0.6,1-1,1.3s-0.8,0.6-1.2,0.8c-0.5,0.2-1,0.3-1.5,0.3c-1.3,0-2.3-0.4-3-1.2
		s-1.1-1.8-1.1-2.8s0.3-1.9,0.9-2.6c0.8-1,1.8-1.5,3.1-1.5s2.4,0.5,3.2,1.5c0.6,0.7,0.8,1.6,0.9,2.7h-7c0,0.9,0.3,1.6,0.9,2.2
		c0.6,0.6,1.2,0.9,2.1,0.9c0.4,0,0.8-0.1,1.2-0.2c0.4-0.1,0.7-0.3,1-0.5C161.5,36.9,161.7,36.5,162.1,36z M162.1,33.9
		c-0.1-0.5-0.3-1-0.6-1.3s-0.6-0.6-1-0.8s-0.9-0.3-1.3-0.3c-0.8,0-1.4,0.2-2,0.7c-0.4,0.4-0.7,0.9-0.9,1.6L162.1,33.9L162.1,33.9z"
		/>
	<path class="st0" d="M165,30.8h1v1.4c0.4-0.5,0.8-0.9,1.3-1.2c0.5-0.3,1-0.4,1.6-0.4s1.1,0.1,1.5,0.4s0.8,0.7,1,1.2
		s0.3,1.3,0.3,2.3v4h-1v-3.7c0-0.9,0-1.5-0.1-1.8c-0.1-0.5-0.3-0.9-0.7-1.2c-0.3-0.3-0.8-0.4-1.3-0.4c-0.6,0-1.1,0.2-1.6,0.6
		c-0.5,0.4-0.8,0.9-0.9,1.5c-0.1,0.4-0.1,1.1-0.1,2.1v2.8h-1V30.8z"/>
	<path class="st0" d="M180.4,36l0.8,0.4c-0.3,0.5-0.6,1-1,1.3s-0.8,0.6-1.2,0.8c-0.5,0.2-1,0.3-1.5,0.3c-1.3,0-2.3-0.4-3-1.2
		s-1.1-1.8-1.1-2.8s0.3-1.9,0.9-2.6c0.8-1,1.8-1.5,3.1-1.5s2.4,0.5,3.2,1.5c0.6,0.7,0.8,1.6,0.9,2.7h-7c0,0.9,0.3,1.6,0.9,2.2
		c0.6,0.6,1.2,0.9,2.1,0.9c0.4,0,0.8-0.1,1.2-0.2c0.4-0.1,0.7-0.3,1-0.5C179.9,36.9,180.1,36.5,180.4,36z M180.4,33.9
		c-0.1-0.5-0.3-1-0.6-1.3s-0.6-0.6-1-0.8s-0.9-0.3-1.3-0.3c-0.8,0-1.4,0.2-2,0.7c-0.4,0.4-0.7,0.9-0.9,1.6L180.4,33.9L180.4,33.9z"
		/>
	<path class="st0" d="M183.4,30.8h1v1.3c0.3-0.5,0.7-0.9,1.1-1.1c0.5-0.3,1-0.5,1.6-0.5c0.4,0,0.7,0.1,1.1,0.2s0.6,0.3,0.8,0.6
		c0.2,0.2,0.4,0.6,0.6,1.1c0.3-0.6,0.7-1.1,1.2-1.4s1-0.5,1.6-0.5c0.5,0,1,0.1,1.4,0.4s0.7,0.6,0.9,1.1c0.2,0.5,0.3,1.2,0.3,2.2v4.2
		h-1v-4.2c0-0.8-0.1-1.4-0.2-1.7c-0.1-0.3-0.3-0.6-0.6-0.8c-0.3-0.2-0.6-0.3-1-0.3c-0.5,0-0.9,0.1-1.3,0.4c-0.4,0.3-0.7,0.7-0.9,1.1
		c-0.2,0.5-0.3,1.3-0.3,2.4v3h-1v-4c0-0.9-0.1-1.6-0.2-1.9c-0.1-0.3-0.3-0.6-0.6-0.8c-0.3-0.2-0.6-0.3-1-0.3c-0.5,0-0.9,0.1-1.3,0.4
		c-0.4,0.3-0.7,0.7-0.9,1.1s-0.3,1.2-0.3,2.2v3.3h-1L183.4,30.8L183.4,30.8z"/>
	<path class="st0" d="M200.8,30.6c1.2,0,2.2,0.4,3,1.3c0.7,0.8,1.1,1.7,1.1,2.8c0,1.1-0.4,2-1.1,2.8c-0.8,0.8-1.7,1.2-2.9,1.2
		s-2.2-0.4-2.9-1.2c-0.8-0.8-1.1-1.8-1.1-2.8c0-1.1,0.4-2,1.1-2.8C198.6,31,199.6,30.6,200.8,30.6z M200.8,31.6
		c-0.8,0-1.5,0.3-2.1,0.9c-0.6,0.6-0.9,1.4-0.9,2.2c0,0.6,0.1,1.1,0.4,1.6c0.3,0.5,0.6,0.9,1.1,1.1c0.5,0.3,1,0.4,1.5,0.4
		c0.6,0,1.1-0.1,1.5-0.4c0.5-0.3,0.8-0.6,1.1-1.1s0.4-1,0.4-1.6c0-0.9-0.3-1.6-0.9-2.2C202.3,31.9,201.6,31.6,200.8,31.6z"/>
	<path class="st0" d="M210.6,31.7l-0.6,0.7c-0.5-0.5-1.1-0.8-1.6-0.8c-0.3,0-0.6,0.1-0.8,0.3c-0.2,0.2-0.3,0.5-0.3,0.7
		c0,0.3,0.1,0.5,0.3,0.7s0.6,0.5,1.2,0.8c0.7,0.4,1.2,0.8,1.5,1.1c0.3,0.4,0.4,0.8,0.4,1.2c0,0.6-0.2,1.2-0.7,1.6
		c-0.4,0.4-1,0.7-1.7,0.7c-0.4,0-0.9-0.1-1.3-0.3c-0.4-0.2-0.7-0.5-1-0.8l0.6-0.7c0.5,0.6,1.1,0.9,1.6,0.9c0.4,0,0.7-0.1,1-0.4
		c0.3-0.3,0.4-0.6,0.4-0.9c0-0.3-0.1-0.5-0.3-0.8c-0.2-0.2-0.6-0.5-1.3-0.8c-0.7-0.4-1.2-0.7-1.4-1.1c-0.3-0.4-0.4-0.8-0.4-1.2
		c0-0.6,0.2-1.1,0.6-1.5c0.4-0.4,0.9-0.6,1.5-0.6C209.1,30.6,209.8,31,210.6,31.7z"/>
	<path class="st0" d="M216.2,27.8h1v10.8h-1V27.8z"/>
	<path class="st0" d="M227,30.8v7.8h-1v-1.3c-0.4,0.5-0.9,0.9-1.4,1.1c-0.5,0.3-1.1,0.4-1.7,0.4c-1.1,0-2-0.4-2.8-1.2
		s-1.2-1.8-1.2-2.9c0-1.1,0.4-2.1,1.2-2.9c0.8-0.8,1.7-1.2,2.8-1.2c0.6,0,1.2,0.1,1.7,0.4s1,0.7,1.4,1.2v-1.4
		C226,30.8,227,30.8,227,30.8z M223,31.6c-0.6,0-1.1,0.1-1.5,0.4c-0.5,0.3-0.8,0.7-1.1,1.2s-0.4,1-0.4,1.6c0,0.5,0.1,1.1,0.4,1.6
		c0.3,0.5,0.7,0.9,1.1,1.2s1,0.4,1.5,0.4s1.1-0.1,1.6-0.4c0.5-0.3,0.9-0.6,1.1-1.1c0.3-0.5,0.4-1,0.4-1.6c0-0.9-0.3-1.6-0.9-2.3
		C224.6,31.9,223.9,31.6,223,31.6z"/>
	<path class="st0" d="M243.2,30l-0.8,0.6c-0.5-0.6-1-1-1.6-1.4s-1.3-0.5-2.1-0.5s-1.6,0.2-2.3,0.6s-1.3,0.9-1.7,1.6
		s-0.6,1.4-0.6,2.3c0,1.3,0.4,2.3,1.3,3.2s2,1.3,3.3,1.3c1.5,0,2.7-0.6,3.7-1.7l0.8,0.6c-0.5,0.7-1.2,1.2-2,1.5
		c-0.8,0.4-1.7,0.5-2.6,0.5c-1.8,0-3.3-0.6-4.3-1.8c-0.9-1-1.3-2.3-1.3-3.7c0-1.5,0.5-2.8,1.6-3.9c1.1-1,2.4-1.6,4-1.6
		c1,0,1.9,0.2,2.7,0.6C242.1,28.8,242.7,29.3,243.2,30z"/>
	<path class="st0" d="M251.7,36l0.8,0.4c-0.3,0.5-0.6,1-1,1.3s-0.8,0.6-1.2,0.8c-0.5,0.2-1,0.3-1.5,0.3c-1.3,0-2.3-0.4-3-1.2
		s-1.1-1.8-1.1-2.8s0.3-1.9,0.9-2.6c0.8-1,1.8-1.5,3.1-1.5s2.4,0.5,3.2,1.5c0.6,0.7,0.8,1.6,0.9,2.7h-7c0,0.9,0.3,1.6,0.9,2.2
		c0.6,0.6,1.2,0.9,2.1,0.9c0.4,0,0.8-0.1,1.2-0.2c0.4-0.1,0.7-0.3,1-0.5C251.1,36.9,251.4,36.5,251.7,36z M251.7,33.9
		c-0.1-0.5-0.3-1-0.6-1.3s-0.6-0.6-1-0.8s-0.9-0.3-1.3-0.3c-0.8,0-1.4,0.2-2,0.7c-0.4,0.4-0.7,0.9-0.9,1.6L251.7,33.9L251.7,33.9z"
		/>
	<path class="st0" d="M254.3,30.8h1v1.1c0.3-0.4,0.6-0.8,1-1c0.3-0.2,0.7-0.3,1.1-0.3c0.3,0,0.6,0.1,0.9,0.3l-0.5,0.8
		c-0.2-0.1-0.4-0.1-0.5-0.1c-0.3,0-0.7,0.1-1,0.4c-0.3,0.3-0.5,0.7-0.7,1.3c-0.1,0.4-0.2,1.3-0.2,2.7v2.6h-1L254.3,30.8L254.3,30.8z
		"/>
	<path class="st0" d="M259.9,27.9h1v2.9h1.6v0.9h-1.6v6.9h-1v-6.9h-1.4v-0.9h1.4V27.9z"/>
	<path class="st0" d="M270.5,36l0.8,0.4c-0.3,0.5-0.6,1-1,1.3s-0.8,0.6-1.2,0.8c-0.5,0.2-1,0.3-1.5,0.3c-1.3,0-2.3-0.4-3-1.2
		s-1.1-1.8-1.1-2.8s0.3-1.9,0.9-2.6c0.8-1,1.8-1.5,3.1-1.5c1.3,0,2.4,0.5,3.2,1.5c0.6,0.7,0.8,1.6,0.9,2.7h-7c0,0.9,0.3,1.6,0.9,2.2
		c0.6,0.6,1.2,0.9,2.1,0.9c0.4,0,0.8-0.1,1.2-0.2c0.4-0.1,0.7-0.3,1-0.5C270,36.9,270.2,36.5,270.5,36z M270.5,33.9
		c-0.1-0.5-0.3-1-0.6-1.3c-0.3-0.3-0.6-0.6-1-0.8s-0.9-0.3-1.3-0.3c-0.8,0-1.4,0.2-2,0.7c-0.4,0.4-0.7,0.9-0.9,1.6L270.5,33.9
		L270.5,33.9z"/>
	<path class="st0" d="M272.9,30.8h5.7l-4.4,6.9h4.2v0.9h-6l4.4-6.9h-4L272.9,30.8L272.9,30.8z"/>
	<path class="st0" d="M287.4,30.8v7.8h-1v-1.3c-0.4,0.5-0.9,0.9-1.4,1.1c-0.5,0.3-1.1,0.4-1.7,0.4c-1.1,0-2-0.4-2.8-1.2
		s-1.2-1.8-1.2-2.9c0-1.1,0.4-2.1,1.2-2.9c0.8-0.8,1.7-1.2,2.8-1.2c0.6,0,1.2,0.1,1.7,0.4s1,0.7,1.4,1.2v-1.4
		C286.4,30.8,287.4,30.8,287.4,30.8z M283.4,31.6c-0.6,0-1.1,0.1-1.5,0.4c-0.5,0.3-0.8,0.7-1.1,1.2s-0.4,1-0.4,1.6
		c0,0.5,0.1,1.1,0.4,1.6s0.7,0.9,1.1,1.2c0.5,0.3,1,0.4,1.5,0.4s1.1-0.1,1.6-0.4c0.5-0.3,0.9-0.6,1.1-1.1c0.3-0.5,0.4-1,0.4-1.6
		c0-0.9-0.3-1.6-0.9-2.3C285,31.9,284.3,31.6,283.4,31.6z"/>
</g>
<g>
	<path class="st0" d="M157.7,47.6v10.8h-1V57c-0.4,0.5-0.9,0.9-1.4,1.1c-0.5,0.3-1.1,0.4-1.7,0.4c-1.1,0-2-0.4-2.8-1.2
		s-1.2-1.8-1.2-2.9c0-1.1,0.4-2.1,1.2-2.9s1.7-1.2,2.8-1.2c0.6,0,1.2,0.1,1.7,0.4c0.5,0.3,1,0.7,1.4,1.2v-4.4h1V47.6z M153.8,51.4
		c-0.6,0-1.1,0.1-1.5,0.4c-0.5,0.3-0.8,0.7-1.1,1.2s-0.4,1-0.4,1.6c0,0.5,0.1,1.1,0.4,1.6c0.3,0.5,0.7,0.9,1.1,1.2
		c0.5,0.3,1,0.4,1.5,0.4s1.1-0.1,1.6-0.4c0.5-0.3,0.9-0.6,1.1-1.1c0.3-0.5,0.4-1,0.4-1.6c0-0.9-0.3-1.6-0.9-2.3
		C155.3,51.7,154.6,51.4,153.8,51.4z"/>
	<path class="st0" d="M166.5,55.8l0.8,0.4c-0.3,0.5-0.6,1-1,1.3s-0.8,0.6-1.2,0.8c-0.5,0.2-1,0.3-1.5,0.3c-1.3,0-2.3-0.4-3-1.2
		s-1.1-1.8-1.1-2.8s0.3-1.9,0.9-2.6c0.8-1,1.8-1.5,3.1-1.5s2.4,0.5,3.2,1.5c0.6,0.7,0.8,1.6,0.9,2.7h-7c0,0.9,0.3,1.6,0.9,2.2
		c0.6,0.6,1.2,0.9,2.1,0.9c0.4,0,0.8-0.1,1.2-0.2c0.4-0.1,0.7-0.3,1-0.5C165.9,56.7,166.2,56.3,166.5,55.8z M166.5,53.7
		c-0.1-0.5-0.3-1-0.6-1.3s-0.6-0.6-1-0.8s-0.9-0.3-1.3-0.3c-0.8,0-1.4,0.2-2,0.7c-0.4,0.4-0.7,0.9-0.9,1.6L166.5,53.7L166.5,53.7z"
		/>
</g>
<g>
	<path class="st0" d="M179.1,47.9h2v4h3.5v-4h2v10.5h-2v-4.6h-3.5v4.6h-2V47.9z"/>
	<path class="st0" d="M196.4,50.7h1.9v7.8h-1.9v-0.8c-0.4,0.4-0.8,0.6-1.1,0.8c-0.4,0.2-0.8,0.2-1.2,0.2c-1,0-1.9-0.4-2.6-1.2
		c-0.7-0.8-1.1-1.7-1.1-2.9s0.4-2.2,1.1-2.9c0.7-0.8,1.6-1.1,2.6-1.1c0.5,0,0.9,0.1,1.3,0.3c0.4,0.2,0.8,0.4,1.1,0.8v-1
		C196.5,50.7,196.4,50.7,196.4,50.7z M194.4,52.3c-0.6,0-1.1,0.2-1.5,0.6s-0.6,1-0.6,1.6c0,0.7,0.2,1.2,0.6,1.7
		c0.4,0.4,0.9,0.6,1.5,0.6s1.1-0.2,1.5-0.6c0.4-0.4,0.6-1,0.6-1.7s-0.2-1.2-0.6-1.6C195.5,52.5,195,52.3,194.4,52.3z"/>
	<path class="st0" d="M209.7,52.2l-1.6,0.9c-0.3-0.3-0.6-0.5-0.9-0.7s-0.6-0.2-1-0.2c-0.7,0-1.3,0.2-1.8,0.7s-0.7,1-0.7,1.7
		s0.2,1.2,0.6,1.6c0.4,0.4,1,0.6,1.7,0.6c0.9,0,1.5-0.3,2-0.9l1.5,1.1c-0.8,1.1-2,1.6-3.5,1.6c-1.4,0-2.4-0.4-3.2-1.2
		s-1.2-1.8-1.2-2.8c0-0.8,0.2-1.4,0.6-2.1s0.9-1.1,1.6-1.5c0.7-0.4,1.4-0.5,2.3-0.5c0.8,0,1.5,0.2,2.1,0.5S209.3,51.7,209.7,52.2z"
		/>
	<path class="st0" d="M221.1,55.1h-6.3c0.1,0.6,0.3,1,0.7,1.3s0.9,0.5,1.5,0.5c0.7,0,1.4-0.3,1.9-0.8l1.6,0.8
		c-0.4,0.6-0.9,1-1.5,1.3s-1.2,0.4-2,0.4c-1.2,0-2.2-0.4-3-1.2s-1.1-1.7-1.1-2.9s0.4-2.2,1.1-2.9c0.8-0.8,1.7-1.2,2.9-1.2
		s2.2,0.4,3,1.2s1.1,1.8,1.1,3.1L221.1,55.1z M219.1,53.6c-0.1-0.4-0.4-0.8-0.8-1.1c-0.4-0.3-0.8-0.4-1.3-0.4s-1,0.2-1.4,0.5
		c-0.3,0.2-0.5,0.5-0.7,1H219.1z"/>
	<path class="st0" d="M224,50.7h1.7v1c0.2-0.4,0.4-0.7,0.7-0.9s0.6-0.3,1-0.3c0.3,0,0.5,0.1,0.8,0.2l-0.6,1.7
		c-0.2-0.1-0.4-0.2-0.6-0.2c-0.3,0-0.6,0.2-0.8,0.6c-0.2,0.4-0.3,1.1-0.3,2.2v0.4v3.1H224V50.7z"/>
	<path class="st0" d="M230.8,47.7h1.9v10.8h-1.9V47.7z"/>
	<path class="st0" d="M240,50.5c0.7,0,1.4,0.2,2.1,0.5c0.6,0.4,1.1,0.9,1.5,1.5s0.5,1.3,0.5,2s-0.2,1.4-0.5,2.1
		c-0.4,0.6-0.9,1.1-1.5,1.5s-1.3,0.5-2.1,0.5c-1.1,0-2.1-0.4-2.8-1.2c-0.8-0.8-1.2-1.8-1.2-2.9c0-1.2,0.4-2.2,1.3-3
		C238.1,50.8,239,50.5,240,50.5z M240,52.3c-0.6,0-1.1,0.2-1.5,0.6c-0.4,0.4-0.6,1-0.6,1.6c0,0.7,0.2,1.2,0.6,1.6s0.9,0.6,1.5,0.6
		s1.1-0.2,1.5-0.6c0.4-0.4,0.6-1,0.6-1.6s-0.2-1.2-0.6-1.6C241.1,52.5,240.6,52.3,240,52.3z"/>
	<path class="st0" d="M253.6,58.4V47.9h1.6c1,0,1.7,0.1,2.1,0.2c0.6,0.2,1.1,0.5,1.5,0.9c0.4,0.5,0.6,1,0.6,1.6
		c0,0.4-0.1,0.8-0.3,1.1c-0.2,0.3-0.4,0.6-0.8,0.9c0.6,0.3,1.1,0.7,1.4,1.1s0.4,1,0.4,1.6s-0.2,1.1-0.5,1.6s-0.7,0.8-1.2,1.1
		c-0.5,0.2-1.1,0.4-2,0.4C256.4,58.4,253.6,58.4,253.6,58.4z M255.6,49.8V52h0.4c0.5,0,0.8-0.1,1.1-0.3s0.4-0.5,0.4-0.8
		s-0.1-0.6-0.3-0.8c-0.2-0.2-0.6-0.3-1-0.3C256.2,49.8,255.6,49.8,255.6,49.8z M255.6,53.8v2.7h0.5c0.8,0,1.4-0.1,1.7-0.3
		c0.3-0.2,0.4-0.5,0.4-0.9c0-0.5-0.2-0.8-0.5-1.1s-0.9-0.4-1.7-0.4H255.6z"/>
	<path class="st0" d="M264.5,47.5c0.3,0,0.6,0.1,0.9,0.4s0.4,0.5,0.4,0.9c0,0.3-0.1,0.6-0.4,0.9c-0.2,0.2-0.5,0.4-0.9,0.4
		c-0.3,0-0.6-0.1-0.9-0.4c-0.2-0.2-0.4-0.6-0.4-0.9c0-0.3,0.1-0.6,0.4-0.9S264.1,47.5,264.5,47.5z M263.5,50.7h1.9v7.8h-1.9V50.7z"
		/>
	<path class="st0" d="M276.8,55.1h-6.3c0.1,0.6,0.3,1,0.7,1.3s0.9,0.5,1.5,0.5c0.7,0,1.4-0.3,1.9-0.8l1.6,0.8
		c-0.4,0.6-0.9,1-1.5,1.3s-1.2,0.4-2,0.4c-1.2,0-2.2-0.4-3-1.2s-1.1-1.7-1.1-2.9s0.4-2.2,1.1-2.9c0.8-0.8,1.7-1.2,2.9-1.2
		c1.2,0,2.2,0.4,3,1.2s1.1,1.8,1.1,3.1L276.8,55.1z M274.9,53.6c-0.1-0.4-0.4-0.8-0.8-1.1s-0.8-0.4-1.3-0.4s-1,0.2-1.4,0.5
		c-0.3,0.2-0.5,0.5-0.7,1H274.9z"/>
	<path class="st0" d="M280.2,50.7h1.9v0.8c0.4-0.4,0.8-0.6,1.2-0.8c0.4-0.1,0.7-0.2,1.1-0.2c0.8,0,1.4,0.3,2,0.8
		c0.5,0.5,0.7,1.1,0.7,2v5.1h-1.9V55c0-0.9,0-1.5-0.1-1.8s-0.2-0.5-0.4-0.7c-0.2-0.2-0.5-0.2-0.8-0.2c-0.4,0-0.7,0.1-1,0.4
		c-0.3,0.3-0.5,0.6-0.6,1.1c-0.1,0.2-0.1,0.8-0.1,1.6v3.1h-1.9v-7.8C280.3,50.7,280.2,50.7,280.2,50.7z"/>
</g>
<rect x="134.8" y="10" class="st0" width="1" height="61.8"/>
</svg>
